{"glyphs":{"0":{"ha":1389,"x_min":0,"x_max":1215,"o":"m 174 0 l 174 174 l 1042 174 l 1042 0 l 174 0 m 0 174 l 0 694 l 174 694 l 174 174 l 0 174 m 1042 174 l 1042 694 l 1215 694 l 1215 174 l 1042 174 m 174 694 l 174 868 l 1042 868 l 1042 694 l 174 694 z "},"1":{"ha":1389,"x_min":0,"x_max":1215,"o":"m 0 0 l 0 174 l 521 174 l 521 694 l 694 694 l 694 174 l 1215 174 l 1215 0 l 0 0 m 0 694 l 0 868 l 521 868 l 521 694 l 0 694 z "},"2":{"ha":1389,"x_min":0,"x_max":1215,"o":"m 0 0 l 0 347 l 174 347 l 174 174 l 1215 174 l 1215 0 l 0 0 m 174 347 l 174 521 l 1042 521 l 1042 347 l 174 347 m 1042 521 l 1042 694 l 1215 694 l 1215 521 l 1042 521 m 0 694 l 0 868 l 1042 868 l 1042 694 l 0 694 z "},"3":{"ha":1389,"x_min":0,"x_max":1215,"o":"m 0 0 l 0 174 l 1042 174 l 1042 0 l 0 0 m 1042 174 l 1042 347 l 0 347 l 0 521 l 1042 521 l 1042 694 l 1215 694 l 1215 174 l 1042 174 m 0 694 l 0 868 l 1042 868 l 1042 694 l 0 694 z "},"4":{"ha":1389,"x_min":0,"x_max":1215,"o":"m 0 521 l 0 868 l 174 868 l 174 521 l 0 521 m 1042 0 l 1042 347 l 174 347 l 174 521 l 1042 521 l 1042 868 l 1215 868 l 1215 0 l 1042 0 z "},"5":{"ha":1389,"x_min":0,"x_max":1215,"o":"m 0 0 l 0 174 l 1042 174 l 1042 0 l 0 0 m 1042 174 l 1042 347 l 1215 347 l 1215 174 l 1042 174 m 174 347 l 174 521 l 1042 521 l 1042 347 l 174 347 m 0 521 l 0 868 l 1215 868 l 1215 694 l 174 694 l 174 521 l 0 521 z "},"6":{"ha":1389,"x_min":0,"x_max":1215,"o":"m 0 0 l 0 694 l 174 694 l 174 521 l 1042 521 l 1042 347 l 174 347 l 174 174 l 1042 174 l 1042 347 l 1215 347 l 1215 0 l 0 0 m 174 694 l 174 868 l 1215 868 l 1215 694 l 174 694 z "},"7":{"ha":1389,"x_min":0,"x_max":1215,"o":"m 521 0 l 521 174 l 694 174 l 694 0 l 521 0 m 694 174 l 694 347 l 868 347 l 868 174 l 694 174 m 868 347 l 868 521 l 1042 521 l 1042 347 l 868 347 m 1042 521 l 1042 694 l 0 694 l 0 868 l 1215 868 l 1215 521 l 1042 521 z "},"8":{"ha":1389,"x_min":0,"x_max":1215,"o":"m 174 0 l 174 174 l 1042 174 l 1042 0 l 174 0 m 0 174 l 0 347 l 174 347 l 174 174 l 0 174 m 1042 174 l 1042 347 l 1215 347 l 1215 174 l 1042 174 m 174 347 l 174 521 l 1042 521 l 1042 347 l 174 347 m 0 521 l 0 694 l 174 694 l 174 521 l 0 521 m 1042 521 l 1042 694 l 1215 694 l 1215 521 l 1042 521 m 174 694 l 174 868 l 1042 868 l 1042 694 l 174 694 z "},"9":{"ha":1389,"x_min":0,"x_max":1215,"o":"m 0 0 l 0 174 l 1042 174 l 1042 0 l 0 0 m 1042 174 l 1042 347 l 0 347 l 0 694 l 174 694 l 174 521 l 1042 521 l 1042 694 l 1215 694 l 1215 174 l 1042 174 m 174 694 l 174 868 l 1042 868 l 1042 694 l 174 694 z "}," ":{"ha":521,"x_min":0,"x_max":0,"o":""},"!":{"ha":347,"x_min":0,"x_max":174,"o":"m 0 0 l 0 174 l 174 174 l 174 0 l 0 0 m 0 347 l 0 868 l 174 868 l 174 347 l 0 347 z "},"\"":{"ha":694,"x_min":0,"x_max":521,"o":"m 0 521 l 0 868 l 174 868 l 174 521 l 0 521 m 347 521 l 347 868 l 521 868 l 521 521 l 347 521 z "},"#":{"ha":1389,"x_min":0,"x_max":1215,"o":"m 868 347 l 868 521 l 347 521 l 347 347 l 868 347 m 174 0 l 174 174 l 0 174 l 0 347 l 174 347 l 174 521 l 0 521 l 0 694 l 174 694 l 174 868 l 347 868 l 347 694 l 868 694 l 868 868 l 1042 868 l 1042 694 l 1215 694 l 1215 521 l 1042 521 l 1042 347 l 1215 347 l 1215 174 l 1042 174 l 1042 0 l 868 0 l 868 174 l 347 174 l 347 0 l 174 0 z "},"$":{"ha":1389,"x_min":0,"x_max":1215,"o":"m 521 -174 l 521 0 l 0 0 l 0 174 l 521 174 l 521 347 l 0 347 l 0 694 l 174 694 l 174 521 l 521 521 l 521 694 l 174 694 l 174 868 l 521 868 l 521 1042 l 694 1042 l 694 868 l 1215 868 l 1215 694 l 694 694 l 694 521 l 1042 521 l 1042 347 l 694 347 l 694 174 l 1042 174 l 1042 347 l 1215 347 l 1215 0 l 694 0 l 694 -174 l 521 -174 z "},"%":{"ha":1042,"x_min":0,"x_max":868,"o":"m 0 0 l 0 174 l 174 174 l 174 0 l 0 0 m 694 0 l 694 174 l 868 174 l 868 0 l 694 0 m 174 174 l 174 347 l 347 347 l 347 174 l 174 174 m 347 347 l 347 521 l 521 521 l 521 347 l 347 347 m 521 521 l 521 694 l 694 694 l 694 521 l 521 521 m 0 694 l 0 868 l 174 868 l 174 694 l 0 694 m 694 694 l 694 868 l 868 868 l 868 694 l 694 694 z "},"&":{"ha":1563,"x_min":0,"x_max":1389,"o":"m 174 0 l 174 174 l 1042 174 l 1042 0 l 174 0 m 1215 0 l 1215 174 l 1389 174 l 1389 0 l 1215 0 m 0 174 l 0 347 l 174 347 l 174 174 l 0 174 m 1042 174 l 1042 347 l 1215 347 l 1215 174 l 1042 174 m 1215 347 l 1215 521 l 1389 521 l 1389 347 l 1215 347 m 0 521 l 0 694 l 174 694 l 174 521 l 0 521 m 174 347 l 174 521 l 694 521 l 694 694 l 868 694 l 868 521 l 1042 521 l 1042 347 l 174 347 m 174 694 l 174 868 l 694 868 l 694 694 l 174 694 z "},"'":{"ha":347,"x_min":0,"x_max":174,"o":"m 0 521 l 0 868 l 174 868 l 174 521 l 0 521 z "},"(":{"ha":521,"x_min":0,"x_max":347,"o":"m 174 0 l 174 174 l 347 174 l 347 0 l 174 0 m 0 174 l 0 694 l 174 694 l 174 174 l 0 174 m 174 694 l 174 868 l 347 868 l 347 694 l 174 694 z "},")":{"ha":521,"x_min":0,"x_max":347,"o":"m 0 0 l 0 174 l 174 174 l 174 0 l 0 0 m 174 174 l 174 694 l 347 694 l 347 174 l 174 174 m 0 694 l 0 868 l 174 868 l 174 694 l 0 694 z "},"*":{"ha":694,"x_min":0,"x_max":521,"o":"m 0 174 l 0 347 l 174 347 l 174 174 l 0 174 m 347 174 l 347 347 l 521 347 l 521 174 l 347 174 m 174 347 l 174 521 l 0 521 l 0 694 l 174 694 l 174 868 l 347 868 l 347 694 l 521 694 l 521 521 l 347 521 l 347 347 l 174 347 z "},"+":{"ha":1389,"x_min":0,"x_max":1215,"o":"m 521 0 l 521 347 l 0 347 l 0 521 l 521 521 l 521 868 l 694 868 l 694 521 l 1215 521 l 1215 347 l 694 347 l 694 0 l 521 0 z "},",":{"ha":347,"x_min":0,"x_max":174,"o":"m 0 -174 l 0 174 l 174 174 l 174 -174 l 0 -174 z "},"-":{"ha":1389,"x_min":0,"x_max":1215,"o":"m 0 347 l 0 521 l 1215 521 l 1215 347 l 0 347 z "},".":{"ha":347,"x_min":0,"x_max":174,"o":"m 0 0 l 0 174 l 174 174 l 174 0 l 0 0 z "},"/":{"ha":1042,"x_min":0,"x_max":868,"o":"m 0 0 l 0 174 l 174 174 l 174 0 l 0 0 m 174 174 l 174 347 l 347 347 l 347 174 l 174 174 m 347 347 l 347 521 l 521 521 l 521 347 l 347 347 m 521 521 l 521 694 l 694 694 l 694 521 l 521 521 m 694 694 l 694 868 l 868 868 l 868 694 l 694 694 z "},":":{"ha":347,"x_min":0,"x_max":174,"o":"m 0 0 l 0 174 l 174 174 l 174 0 l 0 0 m 0 694 l 0 868 l 174 868 l 174 694 l 0 694 z "},";":{"ha":347,"x_min":0,"x_max":174,"o":"m 0 -174 l 0 174 l 174 174 l 174 -174 l 0 -174 m 0 694 l 0 868 l 174 868 l 174 694 l 0 694 z "},"<":{"ha":694,"x_min":0,"x_max":521,"o":"m 347 0 l 347 174 l 521 174 l 521 0 l 347 0 m 174 174 l 174 347 l 347 347 l 347 174 l 174 174 m 0 347 l 0 521 l 174 521 l 174 347 l 0 347 m 174 521 l 174 694 l 347 694 l 347 521 l 174 521 m 347 694 l 347 868 l 521 868 l 521 694 l 347 694 z "},"=":{"ha":1389,"x_min":0,"x_max":1215,"o":"m 0 174 l 0 347 l 1215 347 l 1215 174 l 0 174 m 0 521 l 0 694 l 1215 694 l 1215 521 l 0 521 z "},">":{"ha":694,"x_min":0,"x_max":521,"o":"m 0 0 l 0 174 l 174 174 l 174 0 l 0 0 m 174 174 l 174 347 l 347 347 l 347 174 l 174 174 m 347 347 l 347 521 l 521 521 l 521 347 l 347 347 m 174 521 l 174 694 l 347 694 l 347 521 l 174 521 m 0 694 l 0 868 l 174 868 l 174 694 l 0 694 z "},"?":{"ha":1389,"x_min":0,"x_max":1215,"o":"m 521 0 l 521 174 l 694 174 l 694 0 l 521 0 m 0 521 l 0 694 l 174 694 l 174 521 l 0 521 m 521 347 l 521 521 l 1042 521 l 1042 694 l 1215 694 l 1215 347 l 521 347 m 174 694 l 174 868 l 1042 868 l 1042 694 l 174 694 z "},"@":{"ha":1389,"x_min":0,"x_max":1215,"o":"m 174 0 l 174 174 l 1042 174 l 1042 0 l 174 0 m 0 174 l 0 694 l 174 694 l 174 174 l 0 174 m 347 347 l 347 521 l 1042 521 l 1042 694 l 1215 694 l 1215 347 l 347 347 m 174 694 l 174 868 l 1042 868 l 1042 694 l 174 694 z "},"A":{"ha":1389,"x_min":0,"x_max":1215,"o":"m 0 0 l 0 694 l 174 694 l 174 521 l 1042 521 l 1042 694 l 1215 694 l 1215 0 l 1042 0 l 1042 347 l 174 347 l 174 0 l 0 0 m 174 694 l 174 868 l 1042 868 l 1042 694 l 174 694 z "},"B":{"ha":1389,"x_min":0,"x_max":1215,"o":"m 1042 521 l 1042 694 l 1215 694 l 1215 521 l 1042 521 m 0 0 l 0 868 l 1042 868 l 1042 694 l 174 694 l 174 521 l 1042 521 l 1042 347 l 174 347 l 174 174 l 1042 174 l 1042 347 l 1215 347 l 1215 0 l 0 0 z "},"C":{"ha":1389,"x_min":0,"x_max":1215,"o":"m 174 0 l 174 174 l 1042 174 l 1042 0 l 174 0 m 1042 174 l 1042 347 l 1215 347 l 1215 174 l 1042 174 m 0 174 l 0 694 l 174 694 l 174 174 l 0 174 m 1042 521 l 1042 694 l 1215 694 l 1215 521 l 1042 521 m 174 694 l 174 868 l 1042 868 l 1042 694 l 174 694 z "},"D":{"ha":1389,"x_min":0,"x_max":1215,"o":"m 1042 174 l 1042 694 l 1215 694 l 1215 174 l 1042 174 m 0 0 l 0 868 l 1042 868 l 1042 694 l 174 694 l 174 174 l 1042 174 l 1042 0 l 0 0 z "},"E":{"ha":1389,"x_min":0,"x_max":1215,"o":"m 174 0 l 174 174 l 1215 174 l 1215 0 l 174 0 m 0 174 l 0 694 l 174 694 l 174 521 l 1215 521 l 1215 347 l 174 347 l 174 174 l 0 174 m 174 694 l 174 868 l 1215 868 l 1215 694 l 174 694 z "},"F":{"ha":1389,"x_min":0,"x_max":1215,"o":"m 0 0 l 0 694 l 174 694 l 174 521 l 1215 521 l 1215 347 l 174 347 l 174 0 l 0 0 m 174 694 l 174 868 l 1215 868 l 1215 694 l 174 694 z "},"G":{"ha":1389,"x_min":0,"x_max":1215,"o":"m 174 0 l 174 174 l 1042 174 l 1042 0 l 174 0 m 1042 174 l 1042 347 l 347 347 l 347 521 l 1215 521 l 1215 174 l 1042 174 m 0 174 l 0 694 l 174 694 l 174 174 l 0 174 m 174 694 l 174 868 l 1215 868 l 1215 694 l 174 694 z "},"H":{"ha":1389,"x_min":0,"x_max":1215,"o":"m 0 0 l 0 868 l 174 868 l 174 521 l 1042 521 l 1042 868 l 1215 868 l 1215 0 l 1042 0 l 1042 347 l 174 347 l 174 0 l 0 0 z "},"I":{"ha":694,"x_min":0,"x_max":521,"o":"m 0 0 l 0 174 l 174 174 l 174 694 l 0 694 l 0 868 l 521 868 l 521 694 l 347 694 l 347 174 l 521 174 l 521 0 l 0 0 z "},"J":{"ha":1389,"x_min":0,"x_max":1215,"o":"m 0 0 l 0 174 l 1042 174 l 1042 0 l 0 0 m 1042 174 l 1042 694 l 0 694 l 0 868 l 1215 868 l 1215 174 l 1042 174 z "},"K":{"ha":1389,"x_min":0,"x_max":1215,"o":"m 1042 0 l 1042 347 l 1215 347 l 1215 0 l 1042 0 m 0 0 l 0 868 l 174 868 l 174 521 l 1042 521 l 1042 347 l 174 347 l 174 0 l 0 0 m 1042 521 l 1042 868 l 1215 868 l 1215 521 l 1042 521 z "},"L":{"ha":1389,"x_min":0,"x_max":1215,"o":"m 174 0 l 174 174 l 1215 174 l 1215 0 l 174 0 m 0 174 l 0 868 l 174 868 l 174 174 l 0 174 z "},"M":{"ha":1389,"x_min":0,"x_max":1215,"o":"m 1042 0 l 1042 694 l 1215 694 l 1215 0 l 1042 0 m 0 0 l 0 868 l 1042 868 l 1042 694 l 694 694 l 694 0 l 521 0 l 521 694 l 174 694 l 174 0 l 0 0 z "},"N":{"ha":1389,"x_min":0,"x_max":1215,"o":"m 1042 0 l 1042 694 l 1215 694 l 1215 0 l 1042 0 m 0 0 l 0 868 l 1042 868 l 1042 694 l 174 694 l 174 0 l 0 0 z "},"O":{"ha":1389,"x_min":0,"x_max":1215,"o":"m 174 0 l 174 174 l 1042 174 l 1042 0 l 174 0 m 0 174 l 0 694 l 174 694 l 174 174 l 0 174 m 1042 174 l 1042 694 l 1215 694 l 1215 174 l 1042 174 m 174 694 l 174 868 l 1042 868 l 1042 694 l 174 694 z "},"P":{"ha":1389,"x_min":0,"x_max":1215,"o":"m 0 0 l 0 868 l 1042 868 l 1042 694 l 174 694 l 174 521 l 1042 521 l 1042 694 l 1215 694 l 1215 347 l 174 347 l 174 0 l 0 0 z "},"Q":{"ha":1389,"x_min":0,"x_max":1215,"o":"m 521 -174 l 521 0 l 174 0 l 174 174 l 521 174 l 521 347 l 694 347 l 694 174 l 1042 174 l 1042 0 l 694 0 l 694 -174 l 521 -174 m 0 174 l 0 694 l 174 694 l 174 174 l 0 174 m 1042 174 l 1042 694 l 1215 694 l 1215 174 l 1042 174 m 174 694 l 174 868 l 1042 868 l 1042 694 l 174 694 z "},"R":{"ha":1389,"x_min":0,"x_max":1215,"o":"m 1042 0 l 1042 347 l 1215 347 l 1215 0 l 1042 0 m 1042 521 l 1042 694 l 1215 694 l 1215 521 l 1042 521 m 0 0 l 0 868 l 1042 868 l 1042 694 l 174 694 l 174 521 l 1042 521 l 1042 347 l 174 347 l 174 0 l 0 0 z "},"S":{"ha":1389,"x_min":0,"x_max":1215,"o":"m 0 0 l 0 174 l 1042 174 l 1042 0 l 0 0 m 1042 174 l 1042 347 l 1215 347 l 1215 174 l 1042 174 m 174 347 l 174 521 l 1042 521 l 1042 347 l 174 347 m 0 521 l 0 694 l 174 694 l 174 521 l 0 521 m 174 694 l 174 868 l 1215 868 l 1215 694 l 174 694 z "},"T":{"ha":1389,"x_min":0,"x_max":1215,"o":"m 521 0 l 521 694 l 0 694 l 0 868 l 1215 868 l 1215 694 l 694 694 l 694 0 l 521 0 z "},"U":{"ha":1389,"x_min":0,"x_max":1215,"o":"m 174 0 l 174 174 l 1042 174 l 1042 0 l 174 0 m 0 174 l 0 868 l 174 868 l 174 174 l 0 174 m 1042 174 l 1042 868 l 1215 868 l 1215 174 l 1042 174 z "},"V":{"ha":1389,"x_min":0,"x_max":1215,"o":"m 521 0 l 521 174 l 694 174 l 694 0 l 521 0 m 347 174 l 347 347 l 521 347 l 521 174 l 347 174 m 694 174 l 694 347 l 868 347 l 868 174 l 694 174 m 174 347 l 174 521 l 347 521 l 347 347 l 174 347 m 868 347 l 868 521 l 1042 521 l 1042 347 l 868 347 m 0 521 l 0 868 l 174 868 l 174 521 l 0 521 m 1042 521 l 1042 868 l 1215 868 l 1215 521 l 1042 521 z "},"W":{"ha":1389,"x_min":0,"x_max":1215,"o":"m 0 0 l 0 868 l 174 868 l 174 174 l 521 174 l 521 868 l 694 868 l 694 174 l 1042 174 l 1042 0 l 0 0 m 1042 174 l 1042 868 l 1215 868 l 1215 174 l 1042 174 z "},"X":{"ha":1389,"x_min":0,"x_max":1215,"o":"m 0 0 l 0 347 l 174 347 l 174 0 l 0 0 m 1042 0 l 1042 347 l 1215 347 l 1215 0 l 1042 0 m 174 347 l 174 521 l 1042 521 l 1042 347 l 174 347 m 0 521 l 0 868 l 174 868 l 174 521 l 0 521 m 1042 521 l 1042 868 l 1215 868 l 1215 521 l 1042 521 z "},"Y":{"ha":1389,"x_min":0,"x_max":1215,"o":"m 521 0 l 521 347 l 174 347 l 174 521 l 1042 521 l 1042 347 l 694 347 l 694 0 l 521 0 m 0 521 l 0 868 l 174 868 l 174 521 l 0 521 m 1042 521 l 1042 868 l 1215 868 l 1215 521 l 1042 521 z "},"Z":{"ha":1389,"x_min":0,"x_max":1215,"o":"m 0 0 l 0 347 l 174 347 l 174 174 l 1215 174 l 1215 0 l 0 0 m 174 347 l 174 521 l 1042 521 l 1042 347 l 174 347 m 1042 521 l 1042 694 l 0 694 l 0 868 l 1215 868 l 1215 521 l 1042 521 z "},"[":{"ha":521,"x_min":0,"x_max":347,"o":"m 0 0 l 0 868 l 347 868 l 347 694 l 174 694 l 174 174 l 347 174 l 347 0 l 0 0 z "},"\\":{"ha":1042,"x_min":0,"x_max":868,"o":"m 694 0 l 694 174 l 868 174 l 868 0 l 694 0 m 521 174 l 521 347 l 694 347 l 694 174 l 521 174 m 347 347 l 347 521 l 521 521 l 521 347 l 347 347 m 174 521 l 174 694 l 347 694 l 347 521 l 174 521 m 0 694 l 0 868 l 174 868 l 174 694 l 0 694 z "},"]":{"ha":521,"x_min":0,"x_max":347,"o":"m 0 0 l 0 174 l 174 174 l 174 694 l 0 694 l 0 868 l 347 868 l 347 0 l 0 0 z "},"^":{"ha":1042,"x_min":0,"x_max":868,"o":"m 0 347 l 0 521 l 174 521 l 174 347 l 0 347 m 694 347 l 694 521 l 868 521 l 868 347 l 694 347 m 174 521 l 174 694 l 347 694 l 347 521 l 174 521 m 521 521 l 521 694 l 694 694 l 694 521 l 521 521 m 347 694 l 347 868 l 521 868 l 521 694 l 347 694 z "},"_":{"ha":1389,"x_min":0,"x_max":1215,"o":"m 0 0 l 0 174 l 1215 174 l 1215 0 l 0 0 z "},"`":{"ha":1389,"x_min":1042,"x_max":1215,"o":"m 1042 521 l 1042 868 l 1215 868 l 1215 521 l 1042 521 z "},"a":{"ha":1389,"x_min":0,"x_max":1215,"o":"m 0 0 l 0 694 l 174 694 l 174 521 l 1042 521 l 1042 694 l 1215 694 l 1215 0 l 1042 0 l 1042 347 l 174 347 l 174 0 l 0 0 m 174 694 l 174 868 l 1042 868 l 1042 694 l 174 694 z "},"b":{"ha":1389,"x_min":0,"x_max":1215,"o":"m 1042 521 l 1042 694 l 1215 694 l 1215 521 l 1042 521 m 0 0 l 0 868 l 1042 868 l 1042 694 l 174 694 l 174 521 l 1042 521 l 1042 347 l 174 347 l 174 174 l 1042 174 l 1042 347 l 1215 347 l 1215 0 l 0 0 z "},"c":{"ha":1389,"x_min":0,"x_max":1215,"o":"m 174 0 l 174 174 l 1042 174 l 1042 0 l 174 0 m 1042 174 l 1042 347 l 1215 347 l 1215 174 l 1042 174 m 0 174 l 0 694 l 174 694 l 174 174 l 0 174 m 1042 521 l 1042 694 l 1215 694 l 1215 521 l 1042 521 m 174 694 l 174 868 l 1042 868 l 1042 694 l 174 694 z "},"d":{"ha":1389,"x_min":0,"x_max":1215,"o":"m 1042 174 l 1042 694 l 1215 694 l 1215 174 l 1042 174 m 0 0 l 0 868 l 1042 868 l 1042 694 l 174 694 l 174 174 l 1042 174 l 1042 0 l 0 0 z "},"e":{"ha":1389,"x_min":0,"x_max":1215,"o":"m 174 0 l 174 174 l 1215 174 l 1215 0 l 174 0 m 0 174 l 0 694 l 174 694 l 174 521 l 1215 521 l 1215 347 l 174 347 l 174 174 l 0 174 m 174 694 l 174 868 l 1215 868 l 1215 694 l 174 694 z "},"f":{"ha":1389,"x_min":0,"x_max":1215,"o":"m 0 0 l 0 694 l 174 694 l 174 521 l 1215 521 l 1215 347 l 174 347 l 174 0 l 0 0 m 174 694 l 174 868 l 1215 868 l 1215 694 l 174 694 z "},"g":{"ha":1389,"x_min":0,"x_max":1215,"o":"m 174 0 l 174 174 l 1042 174 l 1042 0 l 174 0 m 1042 174 l 1042 347 l 347 347 l 347 521 l 1215 521 l 1215 174 l 1042 174 m 0 174 l 0 694 l 174 694 l 174 174 l 0 174 m 174 694 l 174 868 l 1215 868 l 1215 694 l 174 694 z "},"h":{"ha":1389,"x_min":0,"x_max":1215,"o":"m 0 0 l 0 868 l 174 868 l 174 521 l 1042 521 l 1042 868 l 1215 868 l 1215 0 l 1042 0 l 1042 347 l 174 347 l 174 0 l 0 0 z "},"i":{"ha":694,"x_min":0,"x_max":521,"o":"m 0 0 l 0 174 l 174 174 l 174 694 l 0 694 l 0 868 l 521 868 l 521 694 l 347 694 l 347 174 l 521 174 l 521 0 l 0 0 z "},"j":{"ha":1389,"x_min":0,"x_max":1215,"o":"m 0 0 l 0 174 l 1042 174 l 1042 0 l 0 0 m 1042 174 l 1042 694 l 0 694 l 0 868 l 1215 868 l 1215 174 l 1042 174 z "},"k":{"ha":1389,"x_min":0,"x_max":1215,"o":"m 1042 0 l 1042 347 l 1215 347 l 1215 0 l 1042 0 m 0 0 l 0 868 l 174 868 l 174 521 l 1042 521 l 1042 347 l 174 347 l 174 0 l 0 0 m 1042 521 l 1042 868 l 1215 868 l 1215 521 l 1042 521 z "},"l":{"ha":1389,"x_min":0,"x_max":1215,"o":"m 174 0 l 174 174 l 1215 174 l 1215 0 l 174 0 m 0 174 l 0 868 l 174 868 l 174 174 l 0 174 z "},"m":{"ha":1389,"x_min":0,"x_max":1215,"o":"m 1042 0 l 1042 694 l 1215 694 l 1215 0 l 1042 0 m 0 0 l 0 868 l 1042 868 l 1042 694 l 694 694 l 694 0 l 521 0 l 521 694 l 174 694 l 174 0 l 0 0 z "},"n":{"ha":1389,"x_min":0,"x_max":1215,"o":"m 1042 0 l 1042 694 l 1215 694 l 1215 0 l 1042 0 m 0 0 l 0 868 l 1042 868 l 1042 694 l 174 694 l 174 0 l 0 0 z "},"o":{"ha":1389,"x_min":0,"x_max":1215,"o":"m 174 0 l 174 174 l 1042 174 l 1042 0 l 174 0 m 0 174 l 0 694 l 174 694 l 174 174 l 0 174 m 1042 174 l 1042 694 l 1215 694 l 1215 174 l 1042 174 m 174 694 l 174 868 l 1042 868 l 1042 694 l 174 694 z "},"p":{"ha":1389,"x_min":0,"x_max":1215,"o":"m 0 0 l 0 868 l 1042 868 l 1042 694 l 174 694 l 174 521 l 1042 521 l 1042 694 l 1215 694 l 1215 347 l 174 347 l 174 0 l 0 0 z "},"q":{"ha":1389,"x_min":0,"x_max":1215,"o":"m 521 -174 l 521 0 l 174 0 l 174 174 l 521 174 l 521 347 l 694 347 l 694 174 l 1042 174 l 1042 0 l 694 0 l 694 -174 l 521 -174 m 0 174 l 0 694 l 174 694 l 174 174 l 0 174 m 1042 174 l 1042 694 l 1215 694 l 1215 174 l 1042 174 m 174 694 l 174 868 l 1042 868 l 1042 694 l 174 694 z "},"r":{"ha":1389,"x_min":0,"x_max":1215,"o":"m 1042 0 l 1042 347 l 1215 347 l 1215 0 l 1042 0 m 1042 521 l 1042 694 l 1215 694 l 1215 521 l 1042 521 m 0 0 l 0 868 l 1042 868 l 1042 694 l 174 694 l 174 521 l 1042 521 l 1042 347 l 174 347 l 174 0 l 0 0 z "},"s":{"ha":1389,"x_min":0,"x_max":1215,"o":"m 0 0 l 0 174 l 1042 174 l 1042 0 l 0 0 m 1042 174 l 1042 347 l 1215 347 l 1215 174 l 1042 174 m 174 347 l 174 521 l 1042 521 l 1042 347 l 174 347 m 0 521 l 0 694 l 174 694 l 174 521 l 0 521 m 174 694 l 174 868 l 1215 868 l 1215 694 l 174 694 z "},"t":{"ha":1389,"x_min":0,"x_max":1215,"o":"m 521 0 l 521 694 l 0 694 l 0 868 l 1215 868 l 1215 694 l 694 694 l 694 0 l 521 0 z "},"u":{"ha":1389,"x_min":0,"x_max":1215,"o":"m 174 0 l 174 174 l 1042 174 l 1042 0 l 174 0 m 0 174 l 0 868 l 174 868 l 174 174 l 0 174 m 1042 174 l 1042 868 l 1215 868 l 1215 174 l 1042 174 z "},"v":{"ha":1389,"x_min":0,"x_max":1215,"o":"m 521 0 l 521 174 l 694 174 l 694 0 l 521 0 m 347 174 l 347 347 l 521 347 l 521 174 l 347 174 m 694 174 l 694 347 l 868 347 l 868 174 l 694 174 m 174 347 l 174 521 l 347 521 l 347 347 l 174 347 m 868 347 l 868 521 l 1042 521 l 1042 347 l 868 347 m 0 521 l 0 868 l 174 868 l 174 521 l 0 521 m 1042 521 l 1042 868 l 1215 868 l 1215 521 l 1042 521 z "},"w":{"ha":1389,"x_min":0,"x_max":1215,"o":"m 0 0 l 0 868 l 174 868 l 174 174 l 521 174 l 521 868 l 694 868 l 694 174 l 1042 174 l 1042 0 l 0 0 m 1042 174 l 1042 868 l 1215 868 l 1215 174 l 1042 174 z "},"x":{"ha":1389,"x_min":0,"x_max":1215,"o":"m 0 0 l 0 347 l 174 347 l 174 0 l 0 0 m 1042 0 l 1042 347 l 1215 347 l 1215 0 l 1042 0 m 174 347 l 174 521 l 1042 521 l 1042 347 l 174 347 m 0 521 l 0 868 l 174 868 l 174 521 l 0 521 m 1042 521 l 1042 868 l 1215 868 l 1215 521 l 1042 521 z "},"y":{"ha":1389,"x_min":0,"x_max":1215,"o":"m 521 0 l 521 347 l 174 347 l 174 521 l 1042 521 l 1042 347 l 694 347 l 694 0 l 521 0 m 0 521 l 0 868 l 174 868 l 174 521 l 0 521 m 1042 521 l 1042 868 l 1215 868 l 1215 521 l 1042 521 z "},"z":{"ha":1389,"x_min":0,"x_max":1215,"o":"m 0 0 l 0 347 l 174 347 l 174 174 l 1215 174 l 1215 0 l 0 0 m 174 347 l 174 521 l 1042 521 l 1042 347 l 174 347 m 1042 521 l 1042 694 l 0 694 l 0 868 l 1215 868 l 1215 521 l 1042 521 z "},"{":{"ha":694,"x_min":0,"x_max":521,"o":"m 347 0 l 347 174 l 521 174 l 521 0 l 347 0 m 174 174 l 174 347 l 0 347 l 0 521 l 174 521 l 174 694 l 347 694 l 347 174 l 174 174 m 347 694 l 347 868 l 521 868 l 521 694 l 347 694 z "},"|":{"ha":347,"x_min":0,"x_max":174,"o":"m 0 0 l 0 868 l 174 868 l 174 0 l 0 0 z "},"}":{"ha":694,"x_min":0,"x_max":521,"o":"m 0 0 l 0 174 l 174 174 l 174 0 l 0 0 m 174 174 l 174 694 l 347 694 l 347 521 l 521 521 l 521 347 l 347 347 l 347 174 l 174 174 m 0 694 l 0 868 l 174 868 l 174 694 l 0 694 z "},"~":{"ha":1389,"x_min":0,"x_max":1215,"o":"m 0 347 l 0 521 l 174 521 l 174 347 l 0 347 m 694 347 l 694 521 l 1042 521 l 1042 347 l 694 347 m 174 521 l 174 694 l 694 694 l 694 521 l 174 521 m 1042 521 l 1042 694 l 1215 694 l 1215 521 l 1042 521 z "},"¡":{"ha":347,"x_min":0,"x_max":174,"o":"m 0 0 l 0 521 l 174 521 l 174 0 l 0 0 m 0 694 l 0 868 l 174 868 l 174 694 l 0 694 z "},"¢":{"ha":1389,"x_min":0,"x_max":1215,"o":"m 1042 174 l 1042 347 l 1215 347 l 1215 174 l 1042 174 m 0 174 l 0 694 l 174 694 l 174 174 l 0 174 m 1042 521 l 1042 694 l 1215 694 l 1215 521 l 1042 521 m 521 -174 l 521 0 l 174 0 l 174 174 l 521 174 l 521 694 l 174 694 l 174 868 l 521 868 l 521 1042 l 694 1042 l 694 868 l 1042 868 l 1042 694 l 694 694 l 694 174 l 1042 174 l 1042 0 l 694 0 l 694 -174 l 521 -174 z "},"£":{"ha":1389,"x_min":0,"x_max":1215,"o":"m 0 0 l 0 347 l 174 347 l 174 174 l 1215 174 l 1215 0 l 0 0 m 174 347 l 174 694 l 347 694 l 347 521 l 868 521 l 868 347 l 174 347 m 1042 521 l 1042 694 l 1215 694 l 1215 521 l 1042 521 m 347 694 l 347 868 l 1042 868 l 1042 694 l 347 694 z "},"¤":{"ha":1042,"x_min":0,"x_max":868,"o":"m 0 0 l 0 174 l 174 174 l 174 0 l 0 0 m 694 0 l 694 174 l 868 174 l 868 0 l 694 0 m 521 347 l 521 521 l 347 521 l 347 347 l 521 347 m 174 174 l 174 694 l 694 694 l 694 174 l 174 174 m 0 694 l 0 868 l 174 868 l 174 694 l 0 694 m 694 694 l 694 868 l 868 868 l 868 694 l 694 694 z "},"¥":{"ha":1389,"x_min":0,"x_max":1215,"o":"m 347 0 l 347 174 l 521 174 l 521 347 l 174 347 l 174 521 l 1042 521 l 1042 347 l 694 347 l 694 174 l 868 174 l 868 0 l 347 0 m 0 521 l 0 868 l 174 868 l 174 521 l 0 521 m 1042 521 l 1042 868 l 1215 868 l 1215 521 l 1042 521 z "},"¦":{"ha":347,"x_min":0,"x_max":174,"o":"m 0 0 l 0 347 l 174 347 l 174 0 l 0 0 m 0 521 l 0 868 l 174 868 l 174 521 l 0 521 z "},"§":{"ha":1389,"x_min":0,"x_max":1215,"o":"m 0 174 l 0 347 l 174 347 l 174 174 l 0 174 m 174 0 l 174 174 l 521 174 l 521 347 l 694 347 l 694 174 l 868 174 l 868 0 l 174 0 m 868 174 l 868 347 l 1042 347 l 1042 174 l 868 174 m 347 347 l 347 521 l 521 521 l 521 347 l 347 347 m 694 347 l 694 521 l 868 521 l 868 347 l 694 347 m 174 521 l 174 694 l 347 694 l 347 521 l 174 521 m 1042 521 l 1042 694 l 1215 694 l 1215 521 l 1042 521 m 521 521 l 521 694 l 347 694 l 347 868 l 1042 868 l 1042 694 l 694 694 l 694 521 l 521 521 z "},"¨":{"ha":1389,"x_min":0,"x_max":1215,"o":"m 0 694 l 0 868 l 174 868 l 174 694 l 0 694 m 1042 694 l 1042 868 l 1215 868 l 1215 694 l 1042 694 z "},"©":{"ha":1389,"x_min":0,"x_max":1215,"o":"m 868 174 l 868 347 l 521 347 l 521 521 l 868 521 l 868 694 l 347 694 l 347 174 l 868 174 m 174 0 l 174 174 l 0 174 l 0 694 l 174 694 l 174 868 l 1042 868 l 1042 694 l 1215 694 l 1215 174 l 1042 174 l 1042 0 l 174 0 z "},"ª":{"ha":694,"x_min":0,"x_max":521,"o":"m 0 174 l 0 694 l 174 694 l 174 521 l 347 521 l 347 694 l 521 694 l 521 174 l 347 174 l 347 347 l 174 347 l 174 174 l 0 174 m 174 694 l 174 868 l 347 868 l 347 694 l 174 694 z "},"«":{"ha":1215,"x_min":0,"x_max":1042,"o":"m 347 0 l 347 174 l 521 174 l 521 0 l 347 0 m 868 0 l 868 174 l 1042 174 l 1042 0 l 868 0 m 174 174 l 174 347 l 347 347 l 347 174 l 174 174 m 694 174 l 694 347 l 868 347 l 868 174 l 694 174 m 0 347 l 0 521 l 174 521 l 174 347 l 0 347 m 521 347 l 521 521 l 694 521 l 694 347 l 521 347 m 174 521 l 174 694 l 347 694 l 347 521 l 174 521 m 694 521 l 694 694 l 868 694 l 868 521 l 694 521 m 347 694 l 347 868 l 521 868 l 521 694 l 347 694 m 868 694 l 868 868 l 1042 868 l 1042 694 l 868 694 z "},"¬":{"ha":1389,"x_min":0,"x_max":1215,"o":"m 1042 174 l 1042 347 l 0 347 l 0 521 l 1215 521 l 1215 174 l 1042 174 z "},"­":{"ha":868,"x_min":0,"x_max":694,"o":"m 0 347 l 0 521 l 694 521 l 694 347 l 0 347 z "},"®":{"ha":1389,"x_min":0,"x_max":1215,"o":"m 521 174 l 521 521 l 868 521 l 868 694 l 347 694 l 347 174 l 521 174 m 174 0 l 174 174 l 0 174 l 0 694 l 174 694 l 174 868 l 1042 868 l 1042 694 l 1215 694 l 1215 174 l 1042 174 l 1042 0 l 174 0 z "},"¯":{"ha":1389,"x_min":0,"x_max":1215,"o":"m 0 694 l 0 868 l 1215 868 l 1215 694 l 0 694 z "},"°":{"ha":694,"x_min":0,"x_max":521,"o":"m 347 521 l 347 694 l 174 694 l 174 521 l 347 521 m 0 347 l 0 868 l 521 868 l 521 347 l 0 347 z "},"±":{"ha":1042,"x_min":0,"x_max":868,"o":"m 0 0 l 0 174 l 868 174 l 868 0 l 0 0 m 347 347 l 347 521 l 174 521 l 174 694 l 347 694 l 347 868 l 521 868 l 521 694 l 694 694 l 694 521 l 521 521 l 521 347 l 347 347 z "},"²":{"ha":694,"x_min":0,"x_max":521,"o":"m 0 0 l 0 521 l 347 521 l 347 694 l 0 694 l 0 868 l 521 868 l 521 347 l 174 347 l 174 174 l 521 174 l 521 0 l 0 0 z "},"³":{"ha":694,"x_min":0,"x_max":521,"o":"m 0 0 l 0 174 l 347 174 l 347 347 l 0 347 l 0 521 l 347 521 l 347 694 l 0 694 l 0 868 l 521 868 l 521 0 l 0 0 z "},"´":{"ha":347,"x_min":0,"x_max":174,"o":"m 0 521 l 0 868 l 174 868 l 174 521 l 0 521 z "},"µ":{"ha":1389,"x_min":0,"x_max":1215,"o":"m 0 -347 l 0 868 l 174 868 l 174 174 l 1042 174 l 1042 0 l 174 0 l 174 -347 l 0 -347 m 1042 174 l 1042 868 l 1215 868 l 1215 174 l 1042 174 z "},"¶":{"ha":1389,"x_min":0,"x_max":1215,"o":"m 694 0 l 694 347 l 174 347 l 174 521 l 0 521 l 0 694 l 174 694 l 174 868 l 1215 868 l 1215 0 l 1042 0 l 1042 694 l 868 694 l 868 0 l 694 0 z "},"·":{"ha":347,"x_min":0,"x_max":174,"o":"m 0 347 l 0 521 l 174 521 l 174 347 l 0 347 z "},"¸":{"ha":521,"x_min":0,"x_max":347,"o":"m 0 -347 l 0 -174 l 174 -174 l 174 0 l 347 0 l 347 -347 l 0 -347 m 0 0 l 0 174 l 174 174 l 174 0 l 0 0 z "},"¹":{"ha":521,"x_min":0,"x_max":347,"o":"m 174 347 l 174 694 l 0 694 l 0 868 l 347 868 l 347 347 l 174 347 z "},"º":{"ha":694,"x_min":0,"x_max":521,"o":"m 347 521 l 347 694 l 174 694 l 174 521 l 347 521 m 0 347 l 0 868 l 521 868 l 521 347 l 0 347 z "},"»":{"ha":1215,"x_min":0,"x_max":1042,"o":"m 0 0 l 0 174 l 174 174 l 174 0 l 0 0 m 521 0 l 521 174 l 694 174 l 694 0 l 521 0 m 174 174 l 174 347 l 347 347 l 347 174 l 174 174 m 694 174 l 694 347 l 868 347 l 868 174 l 694 174 m 347 347 l 347 521 l 521 521 l 521 347 l 347 347 m 868 347 l 868 521 l 1042 521 l 1042 347 l 868 347 m 174 521 l 174 694 l 347 694 l 347 521 l 174 521 m 694 521 l 694 694 l 868 694 l 868 521 l 694 521 m 0 694 l 0 868 l 174 868 l 174 694 l 0 694 m 521 694 l 521 868 l 694 868 l 694 694 l 521 694 z "},"¼":{"ha":1389,"x_min":0,"x_max":1215,"o":"m 0 0 l 0 174 l 521 174 l 521 0 l 0 0 m 1042 0 l 1042 174 l 694 174 l 694 521 l 868 521 l 868 347 l 1042 347 l 1042 521 l 1215 521 l 1215 0 l 1042 0 m 0 347 l 0 868 l 174 868 l 174 347 l 0 347 m 347 694 l 347 868 l 1215 868 l 1215 694 l 347 694 z "},"½":{"ha":1389,"x_min":0,"x_max":1215,"o":"m 0 0 l 0 174 l 521 174 l 521 0 l 0 0 m 694 0 l 694 174 l 868 174 l 868 347 l 694 347 l 694 521 l 1215 521 l 1215 0 l 694 0 m 0 347 l 0 868 l 174 868 l 174 347 l 0 347 m 347 694 l 347 868 l 1215 868 l 1215 694 l 347 694 z "},"¾":{"ha":1389,"x_min":0,"x_max":1215,"o":"m 0 0 l 0 174 l 521 174 l 521 0 l 0 0 m 1042 0 l 1042 174 l 694 174 l 694 521 l 868 521 l 868 347 l 1042 347 l 1042 521 l 1215 521 l 1215 0 l 1042 0 m 0 347 l 0 521 l 174 521 l 174 694 l 0 694 l 0 868 l 347 868 l 347 347 l 0 347 m 521 694 l 521 868 l 1215 868 l 1215 694 l 521 694 z "},"¿":{"ha":1389,"x_min":0,"x_max":1215,"o":"m 0 0 l 0 347 l 174 347 l 174 174 l 1042 174 l 1042 0 l 0 0 m 1042 174 l 1042 347 l 1215 347 l 1215 174 l 1042 174 m 174 347 l 174 521 l 694 521 l 694 347 l 174 347 m 521 694 l 521 868 l 694 868 l 694 694 l 521 694 z "},"À":{"ha":1389,"x_min":0,"x_max":1215,"o":"m 0 0 l 0 694 l 174 694 l 174 521 l 1042 521 l 1042 694 l 1215 694 l 1215 0 l 1042 0 l 1042 347 l 174 347 l 174 0 l 0 0 m 174 694 l 174 868 l 1042 868 l 1042 694 l 174 694 m 0 1042 l 0 1215 l 347 1215 l 347 1042 l 0 1042 z "},"Á":{"ha":1389,"x_min":0,"x_max":1215,"o":"m 0 0 l 0 694 l 174 694 l 174 521 l 1042 521 l 1042 694 l 1215 694 l 1215 0 l 1042 0 l 1042 347 l 174 347 l 174 0 l 0 0 m 174 694 l 174 868 l 1042 868 l 1042 694 l 174 694 m 868 1042 l 868 1215 l 1215 1215 l 1215 1042 l 868 1042 z "},"Â":{"ha":1389,"x_min":0,"x_max":1215,"o":"m 0 0 l 0 694 l 174 694 l 174 521 l 1042 521 l 1042 694 l 1215 694 l 1215 0 l 1042 0 l 1042 347 l 174 347 l 174 0 l 0 0 m 174 694 l 174 868 l 1042 868 l 1042 694 l 174 694 m 0 1042 l 0 1215 l 174 1215 l 174 1042 l 0 1042 m 1042 1042 l 1042 1215 l 1215 1215 l 1215 1042 l 1042 1042 m 174 1215 l 174 1389 l 1042 1389 l 1042 1215 l 174 1215 z "},"Ã":{"ha":1389,"x_min":0,"x_max":1215,"o":"m 0 0 l 0 694 l 174 694 l 174 521 l 1042 521 l 1042 694 l 1215 694 l 1215 0 l 1042 0 l 1042 347 l 174 347 l 174 0 l 0 0 m 174 694 l 174 868 l 1042 868 l 1042 694 l 174 694 m 0 1042 l 0 1215 l 174 1215 l 174 1042 l 0 1042 m 694 1042 l 694 1215 l 1042 1215 l 1042 1042 l 694 1042 m 174 1215 l 174 1389 l 694 1389 l 694 1215 l 174 1215 m 1042 1215 l 1042 1389 l 1215 1389 l 1215 1215 l 1042 1215 z "},"Ä":{"ha":1389,"x_min":0,"x_max":1215,"o":"m 0 0 l 0 694 l 174 694 l 174 521 l 1042 521 l 1042 694 l 1215 694 l 1215 0 l 1042 0 l 1042 347 l 174 347 l 174 0 l 0 0 m 174 694 l 174 868 l 1042 868 l 1042 694 l 174 694 m 0 1042 l 0 1215 l 174 1215 l 174 1042 l 0 1042 m 1042 1042 l 1042 1215 l 1215 1215 l 1215 1042 l 1042 1042 z "},"Å":{"ha":1389,"x_min":0,"x_max":1215,"o":"m 0 0 l 0 694 l 174 694 l 174 521 l 1042 521 l 1042 694 l 1215 694 l 1215 0 l 1042 0 l 1042 347 l 174 347 l 174 0 l 0 0 m 174 694 l 174 868 l 1042 868 l 1042 694 l 174 694 m 521 1042 l 521 1215 l 694 1215 l 694 1042 l 521 1042 z "},"Æ":{"ha":1215,"x_min":0,"x_max":1042,"o":"m 0 0 l 0 694 l 174 694 l 174 521 l 521 521 l 521 694 l 174 694 l 174 868 l 1042 868 l 1042 694 l 694 694 l 694 521 l 1042 521 l 1042 347 l 694 347 l 694 174 l 1042 174 l 1042 0 l 521 0 l 521 347 l 174 347 l 174 0 l 0 0 z "},"Ç":{"ha":1389,"x_min":0,"x_max":1215,"o":"m 521 -347 l 521 -174 l 694 -174 l 694 -347 l 521 -347 m 694 -174 l 694 0 l 174 0 l 174 174 l 1042 174 l 1042 0 l 868 0 l 868 -174 l 694 -174 m 1042 174 l 1042 347 l 1215 347 l 1215 174 l 1042 174 m 0 174 l 0 694 l 174 694 l 174 174 l 0 174 m 1042 521 l 1042 694 l 1215 694 l 1215 521 l 1042 521 m 174 694 l 174 868 l 1042 868 l 1042 694 l 174 694 z "},"È":{"ha":1389,"x_min":0,"x_max":1215,"o":"m 174 0 l 174 174 l 1215 174 l 1215 0 l 174 0 m 0 174 l 0 694 l 174 694 l 174 521 l 1215 521 l 1215 347 l 174 347 l 174 174 l 0 174 m 174 694 l 174 868 l 1215 868 l 1215 694 l 174 694 m 0 1042 l 0 1215 l 347 1215 l 347 1042 l 0 1042 z "},"É":{"ha":1389,"x_min":0,"x_max":1215,"o":"m 174 0 l 174 174 l 1215 174 l 1215 0 l 174 0 m 0 174 l 0 694 l 174 694 l 174 521 l 1215 521 l 1215 347 l 174 347 l 174 174 l 0 174 m 174 694 l 174 868 l 1215 868 l 1215 694 l 174 694 m 868 1042 l 868 1215 l 1215 1215 l 1215 1042 l 868 1042 z "},"Ê":{"ha":1389,"x_min":0,"x_max":1215,"o":"m 174 0 l 174 174 l 1215 174 l 1215 0 l 174 0 m 0 174 l 0 694 l 174 694 l 174 521 l 1215 521 l 1215 347 l 174 347 l 174 174 l 0 174 m 174 694 l 174 868 l 1215 868 l 1215 694 l 174 694 m 0 1042 l 0 1215 l 174 1215 l 174 1042 l 0 1042 m 1042 1042 l 1042 1215 l 1215 1215 l 1215 1042 l 1042 1042 m 174 1215 l 174 1389 l 1042 1389 l 1042 1215 l 174 1215 z "},"Ë":{"ha":1389,"x_min":0,"x_max":1215,"o":"m 174 0 l 174 174 l 1215 174 l 1215 0 l 174 0 m 0 174 l 0 694 l 174 694 l 174 521 l 1215 521 l 1215 347 l 174 347 l 174 174 l 0 174 m 174 694 l 174 868 l 1215 868 l 1215 694 l 174 694 m 0 1042 l 0 1215 l 174 1215 l 174 1042 l 0 1042 m 1042 1042 l 1042 1215 l 1215 1215 l 1215 1042 l 1042 1042 z "},"Ì":{"ha":694,"x_min":0,"x_max":521,"o":"m 0 0 l 0 174 l 174 174 l 174 694 l 0 694 l 0 868 l 521 868 l 521 694 l 347 694 l 347 174 l 521 174 l 521 0 l 0 0 m 0 1042 l 0 1215 l 347 1215 l 347 1042 l 0 1042 z "},"Í":{"ha":694,"x_min":0,"x_max":521,"o":"m 0 0 l 0 174 l 174 174 l 174 694 l 0 694 l 0 868 l 521 868 l 521 694 l 347 694 l 347 174 l 521 174 l 521 0 l 0 0 m 174 1042 l 174 1215 l 521 1215 l 521 1042 l 174 1042 z "},"Î":{"ha":694,"x_min":0,"x_max":521,"o":"m 0 0 l 0 174 l 174 174 l 174 694 l 0 694 l 0 868 l 521 868 l 521 694 l 347 694 l 347 174 l 521 174 l 521 0 l 0 0 m 0 1042 l 0 1215 l 174 1215 l 174 1042 l 0 1042 m 347 1042 l 347 1215 l 521 1215 l 521 1042 l 347 1042 m 174 1215 l 174 1389 l 347 1389 l 347 1215 l 174 1215 z "},"Ï":{"ha":694,"x_min":0,"x_max":521,"o":"m 0 0 l 0 174 l 174 174 l 174 694 l 0 694 l 0 868 l 521 868 l 521 694 l 347 694 l 347 174 l 521 174 l 521 0 l 0 0 m 0 1042 l 0 1215 l 174 1215 l 174 1042 l 0 1042 m 347 1042 l 347 1215 l 521 1215 l 521 1042 l 347 1042 z "},"Ð":{"ha":1389,"x_min":-174,"x_max":1215,"o":"m 1042 174 l 1042 694 l 1215 694 l 1215 174 l 1042 174 m 0 0 l 0 347 l -174 347 l -174 521 l 0 521 l 0 868 l 1042 868 l 1042 694 l 174 694 l 174 521 l 521 521 l 521 347 l 174 347 l 174 174 l 1042 174 l 1042 0 l 0 0 z "},"Ñ":{"ha":1389,"x_min":0,"x_max":1215,"o":"m 1042 0 l 1042 694 l 1215 694 l 1215 0 l 1042 0 m 0 0 l 0 868 l 1042 868 l 1042 694 l 174 694 l 174 0 l 0 0 m 0 1042 l 0 1215 l 174 1215 l 174 1042 l 0 1042 m 694 1042 l 694 1215 l 1042 1215 l 1042 1042 l 694 1042 m 174 1215 l 174 1389 l 694 1389 l 694 1215 l 174 1215 m 1042 1215 l 1042 1389 l 1215 1389 l 1215 1215 l 1042 1215 z "},"Ò":{"ha":1389,"x_min":0,"x_max":1215,"o":"m 174 0 l 174 174 l 1042 174 l 1042 0 l 174 0 m 0 174 l 0 694 l 174 694 l 174 174 l 0 174 m 1042 174 l 1042 694 l 1215 694 l 1215 174 l 1042 174 m 174 694 l 174 868 l 1042 868 l 1042 694 l 174 694 m 0 1042 l 0 1215 l 347 1215 l 347 1042 l 0 1042 z "},"Ó":{"ha":1389,"x_min":0,"x_max":1215,"o":"m 174 0 l 174 174 l 1042 174 l 1042 0 l 174 0 m 0 174 l 0 694 l 174 694 l 174 174 l 0 174 m 1042 174 l 1042 694 l 1215 694 l 1215 174 l 1042 174 m 174 694 l 174 868 l 1042 868 l 1042 694 l 174 694 m 868 1042 l 868 1215 l 1215 1215 l 1215 1042 l 868 1042 z "},"Ô":{"ha":1389,"x_min":0,"x_max":1215,"o":"m 174 0 l 174 174 l 1042 174 l 1042 0 l 174 0 m 0 174 l 0 694 l 174 694 l 174 174 l 0 174 m 1042 174 l 1042 694 l 1215 694 l 1215 174 l 1042 174 m 174 694 l 174 868 l 1042 868 l 1042 694 l 174 694 m 0 1042 l 0 1215 l 174 1215 l 174 1042 l 0 1042 m 1042 1042 l 1042 1215 l 1215 1215 l 1215 1042 l 1042 1042 m 174 1215 l 174 1389 l 1042 1389 l 1042 1215 l 174 1215 z "},"Õ":{"ha":1389,"x_min":0,"x_max":1215,"o":"m 174 0 l 174 174 l 1042 174 l 1042 0 l 174 0 m 0 174 l 0 694 l 174 694 l 174 174 l 0 174 m 1042 174 l 1042 694 l 1215 694 l 1215 174 l 1042 174 m 174 694 l 174 868 l 1042 868 l 1042 694 l 174 694 m 0 1042 l 0 1215 l 174 1215 l 174 1042 l 0 1042 m 694 1042 l 694 1215 l 1042 1215 l 1042 1042 l 694 1042 m 174 1215 l 174 1389 l 694 1389 l 694 1215 l 174 1215 m 1042 1215 l 1042 1389 l 1215 1389 l 1215 1215 l 1042 1215 z "},"Ö":{"ha":1389,"x_min":0,"x_max":1215,"o":"m 174 0 l 174 174 l 1042 174 l 1042 0 l 174 0 m 0 174 l 0 694 l 174 694 l 174 174 l 0 174 m 1042 174 l 1042 694 l 1215 694 l 1215 174 l 1042 174 m 174 694 l 174 868 l 1042 868 l 1042 694 l 174 694 m 0 1042 l 0 1215 l 174 1215 l 174 1042 l 0 1042 m 1042 1042 l 1042 1215 l 1215 1215 l 1215 1042 l 1042 1042 z "},"×":{"ha":1042,"x_min":0,"x_max":868,"o":"m 0 0 l 0 174 l 174 174 l 174 0 l 0 0 m 694 0 l 694 174 l 868 174 l 868 0 l 694 0 m 174 174 l 174 347 l 347 347 l 347 174 l 174 174 m 521 174 l 521 347 l 694 347 l 694 174 l 521 174 m 347 347 l 347 521 l 521 521 l 521 347 l 347 347 m 174 521 l 174 694 l 347 694 l 347 521 l 174 521 m 521 521 l 521 694 l 694 694 l 694 521 l 521 521 m 0 694 l 0 868 l 174 868 l 174 694 l 0 694 m 694 694 l 694 868 l 868 868 l 868 694 l 694 694 z "},"Ø":{"ha":1389,"x_min":0,"x_max":1215,"o":"m 174 0 l 174 174 l 347 174 l 347 347 l 521 347 l 521 174 l 1042 174 l 1042 0 l 174 0 m 521 347 l 521 521 l 694 521 l 694 347 l 521 347 m 0 174 l 0 694 l 174 694 l 174 174 l 0 174 m 1042 174 l 1042 694 l 1215 694 l 1215 174 l 1042 174 m 694 521 l 694 694 l 174 694 l 174 868 l 1042 868 l 1042 694 l 868 694 l 868 521 l 694 521 z "},"Ù":{"ha":1389,"x_min":0,"x_max":1215,"o":"m 174 0 l 174 174 l 1042 174 l 1042 0 l 174 0 m 0 174 l 0 868 l 174 868 l 174 174 l 0 174 m 1042 174 l 1042 868 l 1215 868 l 1215 174 l 1042 174 m 0 1042 l 0 1215 l 347 1215 l 347 1042 l 0 1042 z "},"Ú":{"ha":1389,"x_min":0,"x_max":1215,"o":"m 174 0 l 174 174 l 1042 174 l 1042 0 l 174 0 m 0 174 l 0 868 l 174 868 l 174 174 l 0 174 m 1042 174 l 1042 868 l 1215 868 l 1215 174 l 1042 174 m 868 1042 l 868 1215 l 1215 1215 l 1215 1042 l 868 1042 z "},"Û":{"ha":1389,"x_min":0,"x_max":1215,"o":"m 174 0 l 174 174 l 1042 174 l 1042 0 l 174 0 m 0 174 l 0 868 l 174 868 l 174 174 l 0 174 m 1042 174 l 1042 868 l 1215 868 l 1215 174 l 1042 174 m 0 1042 l 0 1215 l 174 1215 l 174 1042 l 0 1042 m 1042 1042 l 1042 1215 l 1215 1215 l 1215 1042 l 1042 1042 m 174 1215 l 174 1389 l 1042 1389 l 1042 1215 l 174 1215 z "},"Ü":{"ha":1389,"x_min":0,"x_max":1215,"o":"m 174 0 l 174 174 l 1042 174 l 1042 0 l 174 0 m 0 174 l 0 868 l 174 868 l 174 174 l 0 174 m 1042 174 l 1042 868 l 1215 868 l 1215 174 l 1042 174 m 0 1042 l 0 1215 l 174 1215 l 174 1042 l 0 1042 m 1042 1042 l 1042 1215 l 1215 1215 l 1215 1042 l 1042 1042 z "},"Ý":{"ha":1389,"x_min":0,"x_max":1215,"o":"m 521 0 l 521 347 l 174 347 l 174 521 l 1042 521 l 1042 347 l 694 347 l 694 0 l 521 0 m 0 521 l 0 868 l 174 868 l 174 521 l 0 521 m 1042 521 l 1042 868 l 1215 868 l 1215 521 l 1042 521 m 868 1042 l 868 1215 l 1215 1215 l 1215 1042 l 868 1042 z "},"Þ":{"ha":1389,"x_min":0,"x_max":1215,"o":"m 1042 347 l 1042 521 l 1215 521 l 1215 347 l 1042 347 m 0 0 l 0 868 l 174 868 l 174 694 l 1042 694 l 1042 521 l 174 521 l 174 347 l 1042 347 l 1042 174 l 174 174 l 174 0 l 0 0 z "},"ß":{"ha":1389,"x_min":0,"x_max":1215,"o":"m 347 0 l 347 174 l 1042 174 l 1042 347 l 1215 347 l 1215 0 l 347 0 m 694 347 l 694 521 l 1042 521 l 1042 347 l 694 347 m 1042 521 l 1042 694 l 1215 694 l 1215 521 l 1042 521 m 0 0 l 0 868 l 1042 868 l 1042 694 l 174 694 l 174 0 l 0 0 z "},"à":{"ha":1389,"x_min":0,"x_max":1215,"o":"m 0 0 l 0 694 l 174 694 l 174 521 l 1042 521 l 1042 694 l 1215 694 l 1215 0 l 1042 0 l 1042 347 l 174 347 l 174 0 l 0 0 m 174 694 l 174 868 l 1042 868 l 1042 694 l 174 694 m 0 1042 l 0 1215 l 347 1215 l 347 1042 l 0 1042 z "},"á":{"ha":1389,"x_min":0,"x_max":1215,"o":"m 0 0 l 0 694 l 174 694 l 174 521 l 1042 521 l 1042 694 l 1215 694 l 1215 0 l 1042 0 l 1042 347 l 174 347 l 174 0 l 0 0 m 174 694 l 174 868 l 1042 868 l 1042 694 l 174 694 m 868 1042 l 868 1215 l 1215 1215 l 1215 1042 l 868 1042 z "},"â":{"ha":1389,"x_min":0,"x_max":1215,"o":"m 0 0 l 0 694 l 174 694 l 174 521 l 1042 521 l 1042 694 l 1215 694 l 1215 0 l 1042 0 l 1042 347 l 174 347 l 174 0 l 0 0 m 174 694 l 174 868 l 1042 868 l 1042 694 l 174 694 m 0 1042 l 0 1215 l 174 1215 l 174 1042 l 0 1042 m 1042 1042 l 1042 1215 l 1215 1215 l 1215 1042 l 1042 1042 m 174 1215 l 174 1389 l 1042 1389 l 1042 1215 l 174 1215 z "},"ã":{"ha":1389,"x_min":0,"x_max":1215,"o":"m 0 0 l 0 694 l 174 694 l 174 521 l 1042 521 l 1042 694 l 1215 694 l 1215 0 l 1042 0 l 1042 347 l 174 347 l 174 0 l 0 0 m 174 694 l 174 868 l 1042 868 l 1042 694 l 174 694 m 0 1042 l 0 1215 l 174 1215 l 174 1042 l 0 1042 m 694 1042 l 694 1215 l 1042 1215 l 1042 1042 l 694 1042 m 174 1215 l 174 1389 l 694 1389 l 694 1215 l 174 1215 m 1042 1215 l 1042 1389 l 1215 1389 l 1215 1215 l 1042 1215 z "},"ä":{"ha":1389,"x_min":0,"x_max":1215,"o":"m 0 0 l 0 694 l 174 694 l 174 521 l 1042 521 l 1042 694 l 1215 694 l 1215 0 l 1042 0 l 1042 347 l 174 347 l 174 0 l 0 0 m 174 694 l 174 868 l 1042 868 l 1042 694 l 174 694 m 0 1042 l 0 1215 l 174 1215 l 174 1042 l 0 1042 m 1042 1042 l 1042 1215 l 1215 1215 l 1215 1042 l 1042 1042 z "},"å":{"ha":1389,"x_min":0,"x_max":1215,"o":"m 0 0 l 0 694 l 174 694 l 174 521 l 1042 521 l 1042 694 l 1215 694 l 1215 0 l 1042 0 l 1042 347 l 174 347 l 174 0 l 0 0 m 174 694 l 174 868 l 1042 868 l 1042 694 l 174 694 m 521 1042 l 521 1215 l 694 1215 l 694 1042 l 521 1042 z "},"æ":{"ha":1215,"x_min":0,"x_max":1042,"o":"m 0 0 l 0 694 l 174 694 l 174 521 l 521 521 l 521 694 l 174 694 l 174 868 l 1042 868 l 1042 694 l 694 694 l 694 521 l 1042 521 l 1042 347 l 694 347 l 694 174 l 1042 174 l 1042 0 l 521 0 l 521 347 l 174 347 l 174 0 l 0 0 z "},"ç":{"ha":1389,"x_min":0,"x_max":1215,"o":"m 521 -347 l 521 -174 l 694 -174 l 694 -347 l 521 -347 m 694 -174 l 694 0 l 174 0 l 174 174 l 1042 174 l 1042 0 l 868 0 l 868 -174 l 694 -174 m 1042 174 l 1042 347 l 1215 347 l 1215 174 l 1042 174 m 0 174 l 0 694 l 174 694 l 174 174 l 0 174 m 1042 521 l 1042 694 l 1215 694 l 1215 521 l 1042 521 m 174 694 l 174 868 l 1042 868 l 1042 694 l 174 694 z "},"è":{"ha":1389,"x_min":0,"x_max":1215,"o":"m 174 0 l 174 174 l 1215 174 l 1215 0 l 174 0 m 0 174 l 0 694 l 174 694 l 174 521 l 1215 521 l 1215 347 l 174 347 l 174 174 l 0 174 m 174 694 l 174 868 l 1215 868 l 1215 694 l 174 694 m 0 1042 l 0 1215 l 347 1215 l 347 1042 l 0 1042 z "},"é":{"ha":1389,"x_min":0,"x_max":1215,"o":"m 174 0 l 174 174 l 1215 174 l 1215 0 l 174 0 m 0 174 l 0 694 l 174 694 l 174 521 l 1215 521 l 1215 347 l 174 347 l 174 174 l 0 174 m 174 694 l 174 868 l 1215 868 l 1215 694 l 174 694 m 868 1042 l 868 1215 l 1215 1215 l 1215 1042 l 868 1042 z "},"ê":{"ha":1389,"x_min":0,"x_max":1215,"o":"m 174 0 l 174 174 l 1215 174 l 1215 0 l 174 0 m 0 174 l 0 694 l 174 694 l 174 521 l 1215 521 l 1215 347 l 174 347 l 174 174 l 0 174 m 174 694 l 174 868 l 1215 868 l 1215 694 l 174 694 m 0 1042 l 0 1215 l 174 1215 l 174 1042 l 0 1042 m 1042 1042 l 1042 1215 l 1215 1215 l 1215 1042 l 1042 1042 m 174 1215 l 174 1389 l 1042 1389 l 1042 1215 l 174 1215 z "},"ë":{"ha":1389,"x_min":0,"x_max":1215,"o":"m 174 0 l 174 174 l 1215 174 l 1215 0 l 174 0 m 0 174 l 0 694 l 174 694 l 174 521 l 1215 521 l 1215 347 l 174 347 l 174 174 l 0 174 m 174 694 l 174 868 l 1215 868 l 1215 694 l 174 694 m 0 1042 l 0 1215 l 174 1215 l 174 1042 l 0 1042 m 1042 1042 l 1042 1215 l 1215 1215 l 1215 1042 l 1042 1042 z "},"ì":{"ha":694,"x_min":0,"x_max":521,"o":"m 0 0 l 0 174 l 174 174 l 174 694 l 0 694 l 0 868 l 521 868 l 521 694 l 347 694 l 347 174 l 521 174 l 521 0 l 0 0 m 0 1042 l 0 1215 l 347 1215 l 347 1042 l 0 1042 z "},"í":{"ha":694,"x_min":0,"x_max":521,"o":"m 0 0 l 0 174 l 174 174 l 174 694 l 0 694 l 0 868 l 521 868 l 521 694 l 347 694 l 347 174 l 521 174 l 521 0 l 0 0 m 174 1042 l 174 1215 l 521 1215 l 521 1042 l 174 1042 z "},"î":{"ha":694,"x_min":0,"x_max":521,"o":"m 0 0 l 0 174 l 174 174 l 174 694 l 0 694 l 0 868 l 521 868 l 521 694 l 347 694 l 347 174 l 521 174 l 521 0 l 0 0 m 0 1042 l 0 1215 l 174 1215 l 174 1042 l 0 1042 m 347 1042 l 347 1215 l 521 1215 l 521 1042 l 347 1042 m 174 1215 l 174 1389 l 347 1389 l 347 1215 l 174 1215 z "},"ï":{"ha":694,"x_min":0,"x_max":521,"o":"m 0 0 l 0 174 l 174 174 l 174 694 l 0 694 l 0 868 l 521 868 l 521 694 l 347 694 l 347 174 l 521 174 l 521 0 l 0 0 m 0 1042 l 0 1215 l 174 1215 l 174 1042 l 0 1042 m 347 1042 l 347 1215 l 521 1215 l 521 1042 l 347 1042 z "},"ð":{"ha":1389,"x_min":0,"x_max":1215,"o":"m 174 0 l 174 174 l 1042 174 l 1042 0 l 174 0 m 0 174 l 0 347 l 174 347 l 174 174 l 0 174 m 1042 174 l 1042 347 l 174 347 l 174 521 l 521 521 l 521 694 l 347 694 l 347 868 l 521 868 l 521 1042 l 694 1042 l 694 868 l 1042 868 l 1042 694 l 694 694 l 694 521 l 1042 521 l 1042 694 l 1215 694 l 1215 174 l 1042 174 z "},"ñ":{"ha":1389,"x_min":0,"x_max":1215,"o":"m 1042 0 l 1042 694 l 1215 694 l 1215 0 l 1042 0 m 0 0 l 0 868 l 1042 868 l 1042 694 l 174 694 l 174 0 l 0 0 m 0 1042 l 0 1215 l 174 1215 l 174 1042 l 0 1042 m 694 1042 l 694 1215 l 1042 1215 l 1042 1042 l 694 1042 m 174 1215 l 174 1389 l 694 1389 l 694 1215 l 174 1215 m 1042 1215 l 1042 1389 l 1215 1389 l 1215 1215 l 1042 1215 z "},"ò":{"ha":1389,"x_min":0,"x_max":1215,"o":"m 174 0 l 174 174 l 1042 174 l 1042 0 l 174 0 m 0 174 l 0 694 l 174 694 l 174 174 l 0 174 m 1042 174 l 1042 694 l 1215 694 l 1215 174 l 1042 174 m 174 694 l 174 868 l 1042 868 l 1042 694 l 174 694 m 0 1042 l 0 1215 l 347 1215 l 347 1042 l 0 1042 z "},"ó":{"ha":1389,"x_min":0,"x_max":1215,"o":"m 174 0 l 174 174 l 1042 174 l 1042 0 l 174 0 m 0 174 l 0 694 l 174 694 l 174 174 l 0 174 m 1042 174 l 1042 694 l 1215 694 l 1215 174 l 1042 174 m 174 694 l 174 868 l 1042 868 l 1042 694 l 174 694 m 868 1042 l 868 1215 l 1215 1215 l 1215 1042 l 868 1042 z "},"ô":{"ha":1389,"x_min":0,"x_max":1215,"o":"m 174 0 l 174 174 l 1042 174 l 1042 0 l 174 0 m 0 174 l 0 694 l 174 694 l 174 174 l 0 174 m 1042 174 l 1042 694 l 1215 694 l 1215 174 l 1042 174 m 174 694 l 174 868 l 1042 868 l 1042 694 l 174 694 m 0 1042 l 0 1215 l 174 1215 l 174 1042 l 0 1042 m 1042 1042 l 1042 1215 l 1215 1215 l 1215 1042 l 1042 1042 m 174 1215 l 174 1389 l 1042 1389 l 1042 1215 l 174 1215 z "},"õ":{"ha":1389,"x_min":0,"x_max":1215,"o":"m 174 0 l 174 174 l 1042 174 l 1042 0 l 174 0 m 0 174 l 0 694 l 174 694 l 174 174 l 0 174 m 1042 174 l 1042 694 l 1215 694 l 1215 174 l 1042 174 m 174 694 l 174 868 l 1042 868 l 1042 694 l 174 694 m 0 1042 l 0 1215 l 174 1215 l 174 1042 l 0 1042 m 694 1042 l 694 1215 l 1042 1215 l 1042 1042 l 694 1042 m 174 1215 l 174 1389 l 694 1389 l 694 1215 l 174 1215 m 1042 1215 l 1042 1389 l 1215 1389 l 1215 1215 l 1042 1215 z "},"ö":{"ha":1389,"x_min":0,"x_max":1215,"o":"m 174 0 l 174 174 l 1042 174 l 1042 0 l 174 0 m 0 174 l 0 694 l 174 694 l 174 174 l 0 174 m 1042 174 l 1042 694 l 1215 694 l 1215 174 l 1042 174 m 174 694 l 174 868 l 1042 868 l 1042 694 l 174 694 m 0 1042 l 0 1215 l 174 1215 l 174 1042 l 0 1042 m 1042 1042 l 1042 1215 l 1215 1215 l 1215 1042 l 1042 1042 z "},"÷":{"ha":1042,"x_min":0,"x_max":868,"o":"m 347 0 l 347 174 l 521 174 l 521 0 l 347 0 m 0 347 l 0 521 l 868 521 l 868 347 l 0 347 m 347 694 l 347 868 l 521 868 l 521 694 l 347 694 z "},"ø":{"ha":1389,"x_min":0,"x_max":1215,"o":"m 174 0 l 174 174 l 347 174 l 347 347 l 521 347 l 521 174 l 1042 174 l 1042 0 l 174 0 m 521 347 l 521 521 l 694 521 l 694 347 l 521 347 m 0 174 l 0 694 l 174 694 l 174 174 l 0 174 m 1042 174 l 1042 694 l 1215 694 l 1215 174 l 1042 174 m 694 521 l 694 694 l 174 694 l 174 868 l 1042 868 l 1042 694 l 868 694 l 868 521 l 694 521 z "},"ù":{"ha":1389,"x_min":0,"x_max":1215,"o":"m 174 0 l 174 174 l 1042 174 l 1042 0 l 174 0 m 0 174 l 0 868 l 174 868 l 174 174 l 0 174 m 1042 174 l 1042 868 l 1215 868 l 1215 174 l 1042 174 m 0 1042 l 0 1215 l 347 1215 l 347 1042 l 0 1042 z "},"ú":{"ha":1389,"x_min":0,"x_max":1215,"o":"m 174 0 l 174 174 l 1042 174 l 1042 0 l 174 0 m 0 174 l 0 868 l 174 868 l 174 174 l 0 174 m 1042 174 l 1042 868 l 1215 868 l 1215 174 l 1042 174 m 868 1042 l 868 1215 l 1215 1215 l 1215 1042 l 868 1042 z "},"û":{"ha":1389,"x_min":0,"x_max":1215,"o":"m 174 0 l 174 174 l 1042 174 l 1042 0 l 174 0 m 0 174 l 0 868 l 174 868 l 174 174 l 0 174 m 1042 174 l 1042 868 l 1215 868 l 1215 174 l 1042 174 m 0 1042 l 0 1215 l 174 1215 l 174 1042 l 0 1042 m 1042 1042 l 1042 1215 l 1215 1215 l 1215 1042 l 1042 1042 m 174 1215 l 174 1389 l 1042 1389 l 1042 1215 l 174 1215 z "},"ü":{"ha":1389,"x_min":0,"x_max":1215,"o":"m 174 0 l 174 174 l 1042 174 l 1042 0 l 174 0 m 0 174 l 0 868 l 174 868 l 174 174 l 0 174 m 1042 174 l 1042 868 l 1215 868 l 1215 174 l 1042 174 m 0 1042 l 0 1215 l 174 1215 l 174 1042 l 0 1042 m 1042 1042 l 1042 1215 l 1215 1215 l 1215 1042 l 1042 1042 z "},"ý":{"ha":1389,"x_min":0,"x_max":1215,"o":"m 521 0 l 521 347 l 174 347 l 174 521 l 1042 521 l 1042 347 l 694 347 l 694 0 l 521 0 m 0 521 l 0 868 l 174 868 l 174 521 l 0 521 m 1042 521 l 1042 868 l 1215 868 l 1215 521 l 1042 521 m 868 1042 l 868 1215 l 1215 1215 l 1215 1042 l 868 1042 z "},"þ":{"ha":1389,"x_min":0,"x_max":1215,"o":"m 1042 347 l 1042 521 l 1215 521 l 1215 347 l 1042 347 m 0 0 l 0 868 l 174 868 l 174 694 l 1042 694 l 1042 521 l 174 521 l 174 347 l 1042 347 l 1042 174 l 174 174 l 174 0 l 0 0 z "},"ÿ":{"ha":1389,"x_min":0,"x_max":1215,"o":"m 521 0 l 521 347 l 174 347 l 174 521 l 1042 521 l 1042 347 l 694 347 l 694 0 l 521 0 m 0 521 l 0 868 l 174 868 l 174 521 l 0 521 m 1042 521 l 1042 868 l 1215 868 l 1215 521 l 1042 521 m 0 1042 l 0 1215 l 174 1215 l 174 1042 l 0 1042 m 1042 1042 l 1042 1215 l 1215 1215 l 1215 1042 l 1042 1042 z "},"Ÿ":{"ha":1389,"x_min":0,"x_max":1215,"o":"m 521 0 l 521 347 l 174 347 l 174 521 l 1042 521 l 1042 347 l 694 347 l 694 0 l 521 0 m 0 521 l 0 868 l 174 868 l 174 521 l 0 521 m 1042 521 l 1042 868 l 1215 868 l 1215 521 l 1042 521 m 0 1042 l 0 1215 l 174 1215 l 174 1042 l 0 1042 m 1042 1042 l 1042 1215 l 1215 1215 l 1215 1042 l 1042 1042 z "},"ẞ":{"ha":1389,"x_min":0,"x_max":1215,"o":"m 347 0 l 347 174 l 1042 174 l 1042 347 l 1215 347 l 1215 0 l 347 0 m 694 347 l 694 521 l 1042 521 l 1042 347 l 694 347 m 1042 521 l 1042 694 l 1215 694 l 1215 521 l 1042 521 m 0 0 l 0 868 l 1042 868 l 1042 694 l 174 694 l 174 0 l 0 0 z "},"—":{"ha":1389,"x_min":0,"x_max":1215,"o":"m 0 347 l 0 521 l 1215 521 l 1215 347 l 0 347 z "},"‘":{"ha":347,"x_min":0,"x_max":174,"o":"m 0 521 l 0 868 l 174 868 l 174 521 l 0 521 z "},"’":{"ha":347,"x_min":0,"x_max":174,"o":"m 0 521 l 0 868 l 174 868 l 174 521 l 0 521 z "},"‚":{"ha":347,"x_min":0,"x_max":174,"o":"m 0 -174 l 0 174 l 174 174 l 174 -174 l 0 -174 z "},"‛":{"ha":347,"x_min":0,"x_max":174,"o":"m 0 521 l 0 868 l 174 868 l 174 521 l 0 521 z "},"“":{"ha":694,"x_min":0,"x_max":521,"o":"m 0 521 l 0 868 l 174 868 l 174 521 l 0 521 m 347 521 l 347 868 l 521 868 l 521 521 l 347 521 z "},"”":{"ha":694,"x_min":0,"x_max":521,"o":"m 0 521 l 0 868 l 174 868 l 174 521 l 0 521 m 347 521 l 347 868 l 521 868 l 521 521 l 347 521 z "},"„":{"ha":694,"x_min":0,"x_max":521,"o":"m 0 -174 l 0 174 l 174 174 l 174 -174 l 0 -174 m 347 -174 l 347 174 l 521 174 l 521 -174 l 347 -174 z "},"†":{"ha":1389,"x_min":0,"x_max":1215,"o":"m 521 -174 l 521 521 l 0 521 l 0 694 l 521 694 l 521 868 l 694 868 l 694 694 l 1215 694 l 1215 521 l 694 521 l 694 -174 l 521 -174 z "},"•":{"ha":694,"x_min":0,"x_max":521,"o":"m 174 174 l 174 347 l 0 347 l 0 521 l 174 521 l 174 694 l 347 694 l 347 521 l 521 521 l 521 347 l 347 347 l 347 174 l 174 174 z "},"…":{"ha":1389,"x_min":0,"x_max":1215,"o":"m 0 0 l 0 174 l 174 174 l 174 0 l 0 0 m 521 0 l 521 174 l 694 174 l 694 0 l 521 0 m 1042 0 l 1042 174 l 1215 174 l 1215 0 l 1042 0 z "},"‹":{"ha":694,"x_min":0,"x_max":521,"o":"m 347 0 l 347 174 l 521 174 l 521 0 l 347 0 m 174 174 l 174 347 l 347 347 l 347 174 l 174 174 m 0 347 l 0 521 l 174 521 l 174 347 l 0 347 m 174 521 l 174 694 l 347 694 l 347 521 l 174 521 m 347 694 l 347 868 l 521 868 l 521 694 l 347 694 z "},"›":{"ha":694,"x_min":0,"x_max":521,"o":"m 0 0 l 0 174 l 174 174 l 174 0 l 0 0 m 174 174 l 174 347 l 347 347 l 347 174 l 174 174 m 347 347 l 347 521 l 521 521 l 521 347 l 347 347 m 174 521 l 174 694 l 347 694 l 347 521 l 174 521 m 0 694 l 0 868 l 174 868 l 174 694 l 0 694 z "},"€":{"ha":1389,"x_min":-174,"x_max":1215,"o":"m 174 0 l 174 174 l 1042 174 l 1042 0 l 174 0 m 1042 174 l 1042 347 l 1215 347 l 1215 174 l 1042 174 m 0 174 l 0 347 l -174 347 l -174 521 l 0 521 l 0 694 l 174 694 l 174 521 l 868 521 l 868 347 l 174 347 l 174 174 l 0 174 m 1042 521 l 1042 694 l 1215 694 l 1215 521 l 1042 521 m 174 694 l 174 868 l 1042 868 l 1042 694 l 174 694 z "},"™":{"ha":1563,"x_min":0,"x_max":1389,"o":"m 521 347 l 521 694 l 694 694 l 694 347 l 521 347 m 868 521 l 868 694 l 1042 694 l 1042 521 l 868 521 m 1215 347 l 1215 694 l 1389 694 l 1389 347 l 1215 347 m 174 347 l 174 694 l 0 694 l 0 868 l 521 868 l 521 694 l 347 694 l 347 347 l 174 347 m 694 694 l 694 868 l 868 868 l 868 694 l 694 694 m 1042 694 l 1042 868 l 1215 868 l 1215 694 l 1042 694 z "},"ﬁ":{"ha":1389,"x_min":0,"x_max":1215,"o":"m 0 0 l 0 694 l 174 694 l 174 521 l 1215 521 l 1215 0 l 1042 0 l 1042 347 l 174 347 l 174 0 l 0 0 m 174 694 l 174 868 l 868 868 l 868 694 l 174 694 m 1042 694 l 1042 868 l 1215 868 l 1215 694 l 1042 694 z "},"ﬂ":{"ha":1389,"x_min":0,"x_max":1215,"o":"m 174 694 l 174 868 l 868 868 l 868 694 l 174 694 m 0 0 l 0 694 l 174 694 l 174 521 l 1042 521 l 1042 868 l 1215 868 l 1215 0 l 1042 0 l 1042 347 l 174 347 l 174 0 l 0 0 z "}}}
